{
    "asset" : {
        "generator" : "Khronos glTF Blender I/O v3.3.32",
        "version" : "2.0"
    },
    "extensionsUsed" : [
        "KHR_materials_specular",
        "KHR_materials_ior"
    ],
    "scene" : 0,
    "scenes" : [
        {
            "extras" : {
                "blosm" : {
                    "defaultLevels" : [
                        {
                            "levels" : 4,
                            "weight" : 10
                        },
                        {
                            "levels" : 5,
                            "weight" : 40
                        },
                        {
                            "levels" : 6,
                            "weight" : 10
                        }
                    ]
                }
            },
            "name" : "Scene",
            "nodes" : [
                0
            ]
        }
    ],
    "nodes" : [
        {
            "mesh" : 0,
            "name" : "Cube.001",
            "rotation" : [
                -0.8860733509063721,
                0.10835254937410355,
                0.36702361702919006,
                0.26158618927001953
            ],
            "translation" : [
                -0.1942349672317505,
                0,
                0
            ]
        }
    ],
    "materials" : [
        {
            "doubleSided" : true,
            "name" : "MANUBRIO",
            "pbrMetallicRoughness" : {
                "baseColorFactor" : [
                    0.5717847943305969,
                    0.6266626119613647,
                    0.6266626119613647,
                    1
                ],
                "metallicFactor" : 0,
                "roughnessFactor" : 0.5
            }
        },
        {
            "doubleSided" : true,
            "name" : "Material.001",
            "pbrMetallicRoughness" : {
                "baseColorFactor" : [
                    0.02037891000509262,
                    0.02037891000509262,
                    0.02037891000509262,
                    1
                ],
                "metallicFactor" : 0,
                "roughnessFactor" : 0.5
            }
        },
        {
            "doubleSided" : true,
            "extensions" : {
                "KHR_materials_specular" : {
                    "specularColorFactor" : [
                        2.0016298842523703,
                        2.0016298842523703,
                        2.0016298842523703
                    ]
                },
                "KHR_materials_ior" : {
                    "ior" : 1.4500000476837158
                }
            },
            "name" : "Material.002",
            "pbrMetallicRoughness" : {
                "baseColorFactor" : [
                    0.32637572288513184,
                    0.32637572288513184,
                    0.32637572288513184,
                    1
                ],
                "metallicFactor" : 0.8602150678634644,
                "roughnessFactor" : 0.3279569745063782
            }
        }
    ],
    "meshes" : [
        {
            "name" : "Cube.002",
            "primitives" : [
                {
                    "attributes" : {
                        "POSITION" : 0,
                        "NORMAL" : 1,
                        "TEXCOORD_0" : 2
                    },
                    "indices" : 3,
                    "material" : 0
                },
                {
                    "attributes" : {
                        "POSITION" : 4,
                        "NORMAL" : 5,
                        "TEXCOORD_0" : 6
                    },
                    "indices" : 7,
                    "material" : 1
                },
                {
                    "attributes" : {
                        "POSITION" : 8,
                        "NORMAL" : 9,
                        "TEXCOORD_0" : 10
                    },
                    "indices" : 11,
                    "material" : 2
                }
            ]
        }
    ],
    "accessors" : [
        {
            "bufferView" : 0,
            "componentType" : 5126,
            "count" : 1576,
            "max" : [
                3.563264846801758,
                1.1695241928100586,
                1.6820768117904663
            ],
            "min" : [
                -3.563264846801758,
                -0.3448798656463623,
                -2.7114017009735107
            ],
            "type" : "VEC3"
        },
        {
            "bufferView" : 1,
            "componentType" : 5126,
            "count" : 1576,
            "type" : "VEC3"
        },
        {
            "bufferView" : 2,
            "componentType" : 5126,
            "count" : 1576,
            "type" : "VEC2"
        },
        {
            "bufferView" : 3,
            "componentType" : 5123,
            "count" : 5016,
            "type" : "SCALAR"
        },
        {
            "bufferView" : 4,
            "componentType" : 5126,
            "count" : 2338,
            "max" : [
                3.2070183753967285,
                1.005840539932251,
                1.8633629083633423
            ],
            "min" : [
                -3.023815631866455,
                -0.5860218405723572,
                -1.4273585081100464
            ],
            "type" : "VEC3"
        },
        {
            "bufferView" : 5,
            "componentType" : 5126,
            "count" : 2338,
            "type" : "VEC3"
        },
        {
            "bufferView" : 6,
            "componentType" : 5126,
            "count" : 2338,
            "type" : "VEC2"
        },
        {
            "bufferView" : 7,
            "componentType" : 5123,
            "count" : 7560,
            "type" : "SCALAR"
        },
        {
            "bufferView" : 8,
            "componentType" : 5126,
            "count" : 128,
            "max" : [
                0.27753397822380066,
                -0.22342686355113983,
                -0.13147927820682526
            ],
            "min" : [
                -0.09122994542121887,
                -0.28762996196746826,
                -0.5002433061599731
            ],
            "type" : "VEC3"
        },
        {
            "bufferView" : 9,
            "componentType" : 5126,
            "count" : 128,
            "type" : "VEC3"
        },
        {
            "bufferView" : 10,
            "componentType" : 5126,
            "count" : 128,
            "type" : "VEC2"
        },
        {
            "bufferView" : 11,
            "componentType" : 5123,
            "count" : 372,
            "type" : "SCALAR"
        }
    ],
    "bufferViews" : [
        {
            "buffer" : 0,
            "byteLength" : 18912,
            "byteOffset" : 0,
            "target" : 34962
        },
        {
            "buffer" : 0,
            "byteLength" : 18912,
            "byteOffset" : 18912,
            "target" : 34962
        },
        {
            "buffer" : 0,
            "byteLength" : 12608,
            "byteOffset" : 37824,
            "target" : 34962
        },
        {
            "buffer" : 0,
            "byteLength" : 10032,
            "byteOffset" : 50432,
            "target" : 34963
        },
        {
            "buffer" : 0,
            "byteLength" : 28056,
            "byteOffset" : 60464,
            "target" : 34962
        },
        {
            "buffer" : 0,
            "byteLength" : 28056,
            "byteOffset" : 88520,
            "target" : 34962
        },
        {
            "buffer" : 0,
            "byteLength" : 18704,
            "byteOffset" : 116576,
            "target" : 34962
        },
        {
            "buffer" : 0,
            "byteLength" : 15120,
            "byteOffset" : 135280,
            "target" : 34963
        },
        {
            "buffer" : 0,
            "byteLength" : 1536,
            "byteOffset" : 150400,
            "target" : 34962
        },
        {
            "buffer" : 0,
            "byteLength" : 1536,
            "byteOffset" : 151936,
            "target" : 34962
        },
        {
            "buffer" : 0,
            "byteLength" : 1024,
            "byteOffset" : 153472,
            "target" : 34962
        },
        {
            "buffer" : 0,
            "byteLength" : 744,
            "byteOffset" : 154496,
            "target" : 34963
        }
    ],
    "buffers" : [
        {
            "byteLength" : 155240,
            "uri" : "mandoCorregido.bin"
        }
    ]
}
